<svg id="Layer_1" data-name="Layer 1" xmlns="http://www.w3.org/2000/svg" viewBox="0 0 430.47 149.2"><defs><style>.cls-1{fill:#fff;}</style></defs><title>Swish Logo-White</title><path class="cls-1" d="M13.89,31.07Q10.76,28,10.76,22.45a14,14,0,0,1,1.5-6.65,13.26,13.26,0,0,1,4-4.63,17.52,17.52,0,0,1,5.61-2.66,23.69,23.69,0,0,1,6.36-.87q9.68,0,15.06,6.9l8-4.64A27.16,27.16,0,0,0,40.85,2.2,34.67,34.67,0,0,0,28.23,0a34.41,34.41,0,0,0-9.72,1.39A25.63,25.63,0,0,0,10,5.67,21.38,21.38,0,0,0,4,13a22.28,22.28,0,0,0-2.26,10.3,21.86,21.86,0,0,0,1.79,9.43,18.39,18.39,0,0,0,4.74,6.25A26.64,26.64,0,0,0,15,43q3.76,1.62,7.75,2.89t7.75,2.55a30,30,0,0,1,6.71,3.18,15.51,15.51,0,0,1,4.74,4.74,13.1,13.1,0,0,1,1.79,7.12,12.44,12.44,0,0,1-1.62,6.36A16,16,0,0,1,38,74.58a17.89,17.89,0,0,1-5.59,2.89,20.58,20.58,0,0,1-6.23,1A22.05,22.05,0,0,1,15,75.74a19.91,19.91,0,0,1-6.9-6.48L0,73.95a27.2,27.2,0,0,0,11.51,9.31A36.63,36.63,0,0,0,25.8,86.09a30.11,30.11,0,0,0,9.66-1.62,29.37,29.37,0,0,0,8.68-4.63,23,23,0,0,0,6.25-7.47,21,21,0,0,0,2.37-10q0-7.4-3.12-11.68a24.15,24.15,0,0,0-7.75-6.89,46.68,46.68,0,0,0-10.13-4.17A85.77,85.77,0,0,1,21.64,36.1a24.72,24.72,0,0,1-7.75-5m158.83,55V0h-8.61V71.18l-33-19-1.45-.84-1.45.84-33,19V0H86.63V86.08l8.6-5,34.44-19.88,34.44,19.88Zm41.65,0H223V0h-8.61Zm56.9-55q-3.12-3.06-3.12-8.62a14,14,0,0,1,1.5-6.65,13.27,13.27,0,0,1,4-4.63,17.53,17.53,0,0,1,5.61-2.66,23.69,23.69,0,0,1,6.36-.87q9.68,0,15.06,6.9l8-4.64a27.16,27.16,0,0,0-10.48-7.7,36.12,36.12,0,0,0-22.33-.81,25.64,25.64,0,0,0-8.51,4.28,21.38,21.38,0,0,0-6,7.29,22.28,22.28,0,0,0-2.26,10.3,21.87,21.87,0,0,0,1.79,9.43,18.41,18.41,0,0,0,4.74,6.25A26.65,26.65,0,0,0,272.36,43q3.76,1.62,7.75,2.89t7.75,2.55a30,30,0,0,1,6.71,3.18,15.52,15.52,0,0,1,4.75,4.74,13.1,13.1,0,0,1,1.79,7.12,12.44,12.44,0,0,1-1.61,6.36,16,16,0,0,1-4.1,4.68,17.87,17.87,0,0,1-5.59,2.89,20.58,20.58,0,0,1-6.23,1,22.05,22.05,0,0,1-11.19-2.72,19.91,19.91,0,0,1-6.9-6.48l-8.11,4.69a27.2,27.2,0,0,0,11.51,9.31,36.63,36.63,0,0,0,14.29,2.83,30.11,30.11,0,0,0,9.66-1.62,29.34,29.34,0,0,0,8.68-4.63,23,23,0,0,0,6.25-7.47,21,21,0,0,0,2.37-10q0-7.4-3.12-11.68a24.17,24.17,0,0,0-7.75-6.89,46.69,46.69,0,0,0-10.13-4.17A85.77,85.77,0,0,1,279,36.1a24.72,24.72,0,0,1-7.75-5m159.21,55V0h-8.61V43L395.11,27.52l-7.69-4.44-7.69,4.44L353,43V0h-8.61V86.09H353V52.91L387.42,33l34.44,19.88V86.09Z"/><path class="cls-1" d="M340.89,146.58a5.66,5.66,0,0,0,2.59,2,9.35,9.35,0,0,0,3.45.64,8,8,0,0,0,2.57-.4,6.21,6.21,0,0,0,2.09-1.15,5.45,5.45,0,0,0,1.4-1.84,5.67,5.67,0,0,0,.52-2.46,4.56,4.56,0,0,0-.7-2.69,5.22,5.22,0,0,0-1.73-1.55,9.62,9.62,0,0,0-2.25-.9,20.91,20.91,0,0,1-2.25-.72,5.38,5.38,0,0,1-1.72-1,2.39,2.39,0,0,1-.7-1.85,2.9,2.9,0,0,1,.17-.94,2.54,2.54,0,0,1,.6-.95,3.21,3.21,0,0,1,1.14-.72,4.87,4.87,0,0,1,1.78-.28,4.32,4.32,0,0,1,2,.45,3.48,3.48,0,0,1,1.36,1.2l2.09-1.9a5.1,5.1,0,0,0-2.49-1.74,10.22,10.22,0,0,0-3-.43,7.41,7.41,0,0,0-2.93.52,6.28,6.28,0,0,0-2,1.3,5.05,5.05,0,0,0-1.5,3.48,5.38,5.38,0,0,0,.69,2.93,5.5,5.5,0,0,0,1.73,1.72,9.1,9.1,0,0,0,2.25,1q1.22.36,2.25.75a6,6,0,0,1,1.72,1,2,2,0,0,1,.7,1.67,2.63,2.63,0,0,1-.35,1.36,3.29,3.29,0,0,1-.9,1,4,4,0,0,1-1.22.6,4.54,4.54,0,0,1-1.31.2,5.32,5.32,0,0,1-2.23-.5,4.21,4.21,0,0,1-1.78-1.54Zm-26.82,2.14h12.7v-2.41H316.64v-6.07h9v-2.41h-9v-5.64h9.65v-2.41H314.07Zm-20.8,0h2.57V129.78h-2.57Zm-26.1,0h2.57V132.19h6.1v-2.41H261.07v2.41h6.1ZM235.41,132h3.37a9.2,9.2,0,0,1,1.48.12,4,4,0,0,1,1.31.44,2.42,2.42,0,0,1,.92.92,3.7,3.7,0,0,1,0,3.13,2.42,2.42,0,0,1-.92.92,4,4,0,0,1-1.31.44,9.09,9.09,0,0,1-1.48.12h-3.37Zm-2.57,16.68h2.57v-8.34h2.86l4.81,8.34h3.21l-5.37-8.64a5.12,5.12,0,0,0,1.94-.58,5.26,5.26,0,0,0,1.47-1.15,5,5,0,0,0,.92-1.52,4.88,4.88,0,0,0,.32-1.75,6.76,6.76,0,0,0-.27-1.83,4.29,4.29,0,0,0-.95-1.71,5.1,5.1,0,0,0-1.86-1.26,7.8,7.8,0,0,0-3-.49h-6.66Zm-29.71,0h12.7v-2.41H205.7v-6.07h9v-2.41h-9v-5.64h9.65v-2.41H203.13ZM176.48,132h3.37a9.2,9.2,0,0,1,1.48.12,4,4,0,0,1,1.31.44,2.42,2.42,0,0,1,.92.92,3.7,3.7,0,0,1,0,3.13,2.42,2.42,0,0,1-.92.92,4,4,0,0,1-1.31.44,9.09,9.09,0,0,1-1.48.12h-3.37Zm-2.57,16.68h2.57v-8.34h4.09a7.78,7.78,0,0,0,3-.49,5.09,5.09,0,0,0,1.86-1.26,4.27,4.27,0,0,0,.95-1.71,6.39,6.39,0,0,0,0-3.66,4.28,4.28,0,0,0-.95-1.71,5.09,5.09,0,0,0-1.86-1.26,7.8,7.8,0,0,0-3-.49h-6.66ZM144,146.19a7,7,0,0,1-2.25-1.62,7.12,7.12,0,0,1-1.44-2.39,8.69,8.69,0,0,1,0-5.86,7.12,7.12,0,0,1,1.44-2.39,7.09,7.09,0,0,1,10.38,0,7.14,7.14,0,0,1,1.44,2.39,8.69,8.69,0,0,1,0,5.86,7.14,7.14,0,0,1-1.44,2.39,7.27,7.27,0,0,1-8.13,1.62m6.93,2.25a9.27,9.27,0,0,0,3.12-2.1,9.71,9.71,0,0,0,2-3.15,10.88,10.88,0,0,0,0-7.86,9.73,9.73,0,0,0-2-3.15,9.29,9.29,0,0,0-3.12-2.1,10.8,10.8,0,0,0-8,0,9.27,9.27,0,0,0-3.11,2.1,9.7,9.7,0,0,0-2,3.15,10.86,10.86,0,0,0,0,7.86,9.68,9.68,0,0,0,2,3.15,9.25,9.25,0,0,0,3.11,2.1,10.8,10.8,0,0,0,8,0M111.16,132h3.37a9.21,9.21,0,0,1,1.48.12,4,4,0,0,1,1.31.44,2.42,2.42,0,0,1,.92.92,3.7,3.7,0,0,1,0,3.13,2.42,2.42,0,0,1-.92.92A4,4,0,0,1,116,138a9.1,9.1,0,0,1-1.48.12h-3.37Zm-2.57,16.68h2.57v-8.34H114l4.81,8.34H122l-5.37-8.64a5.12,5.12,0,0,0,1.94-.58,5.26,5.26,0,0,0,1.47-1.15,5,5,0,0,0,.92-1.52,4.9,4.9,0,0,0,.32-1.75,6.76,6.76,0,0,0-.27-1.83,4.29,4.29,0,0,0-.95-1.71,5.1,5.1,0,0,0-1.86-1.26,7.8,7.8,0,0,0-3-.49h-6.66ZM80.6,132H84a9.21,9.21,0,0,1,1.48.12,4,4,0,0,1,1.31.44,2.41,2.41,0,0,1,.92.92,3.69,3.69,0,0,1,0,3.13,2.41,2.41,0,0,1-.92.92,4,4,0,0,1-1.31.44,9.1,9.1,0,0,1-1.48.12H80.6ZM78,148.71H80.6v-8.34h4.09a7.77,7.77,0,0,0,3-.49,5.1,5.1,0,0,0,1.86-1.26,4.29,4.29,0,0,0,.95-1.71,6.42,6.42,0,0,0,0-3.66,4.3,4.3,0,0,0-.95-1.71,5.1,5.1,0,0,0-1.86-1.26,7.8,7.8,0,0,0-3-.49H78Z"/></svg>