<?xml version="1.0" encoding="utf-8"?>
<!-- Generator: Adobe Illustrator 15.0.0, SVG Export Plug-In . SVG Version: 6.00 Build 0)  -->
<!DOCTYPE svg PUBLIC "-//W3C//DTD SVG 1.1//EN" "http://www.w3.org/Graphics/SVG/1.1/DTD/svg11.dtd">
<svg version="1.1" id="Layer_1" xmlns="http://www.w3.org/2000/svg" xmlns:xlink="http://www.w3.org/1999/xlink" x="0px" y="0px"
	 width="231.105px" height="84.21px" viewBox="0 0 231.105 84.21" enable-background="new 0 0 231.105 84.21" xml:space="preserve">
<g enable-background="new    ">
	<path stroke="#FFFFFF" stroke-miterlimit="10" d="M97.058,57.559v8.915h-34.15V13.776h10.604v43.783H97.058z"/>
	<path stroke="#FFFFFF" stroke-miterlimit="10" d="M101.515,47.169c0-3.737,0.767-7.104,2.301-10.101
		c1.533-2.996,3.75-5.344,6.649-7.045c2.899-1.702,6.314-2.552,10.245-2.552c4.002,0,7.465,0.857,10.39,2.57
		c2.923,1.714,5.146,4.062,6.668,7.046c1.521,2.984,2.281,6.369,2.281,10.156c0,3.93-0.767,7.41-2.301,10.441
		c-1.533,3.031-3.75,5.404-6.648,7.117c-2.9,1.714-6.339,2.57-10.317,2.57c-3.978,0-7.417-0.856-10.316-2.57
		c-2.899-1.713-5.116-4.092-6.649-7.135C102.281,54.625,101.515,51.125,101.515,47.169z M120.675,35.704
		c-1.678,0-3.182,0.467-4.512,1.402s-2.378,2.289-3.145,4.062c-0.768,1.774-1.15,3.858-1.15,6.255c0,2.371,0.36,4.438,1.079,6.201
		c0.719,1.76,1.744,3.115,3.073,4.062c1.33,0.946,2.894,1.42,4.69,1.42s3.373-0.467,4.728-1.401
		c1.354-0.936,2.401-2.289,3.146-4.063c0.742-1.773,1.114-3.87,1.114-6.291c0-2.324-0.359-4.361-1.078-6.11
		c-0.719-1.749-1.756-3.109-3.109-4.08C124.155,36.189,122.544,35.704,120.675,35.704z"/>
	<path stroke="#FFFFFF" stroke-miterlimit="10" d="M182.611,28.335v34.652c0,4.529-0.672,8.185-2.014,10.964
		c-1.343,2.78-3.396,4.805-6.165,6.075s-6.345,1.905-10.729,1.905c-10.761,0-16.535-4.313-17.326-12.939l10.46,1.688
		c0.239,1.222,0.93,2.114,2.067,2.678s2.869,0.845,5.194,0.845c2.755,0,4.869-0.707,6.345-2.121c1.474-1.414,2.21-3.679,2.21-6.793
		v-3.99h-0.145c-1.006,1.51-2.504,2.75-4.492,3.721c-1.989,0.971-4.184,1.456-6.578,1.456c-3.212,0-6.058-0.82-8.537-2.462
		c-2.48-1.643-4.403-3.932-5.771-6.866c-1.366-2.935-2.049-6.272-2.049-10.011c0-4.122,0.658-7.657,1.978-10.604
		c1.316-2.948,3.205-5.194,5.662-6.74c2.455-1.545,5.338-2.318,8.645-2.318c2.54,0,4.817,0.473,6.83,1.42s3.631,2.307,4.853,4.08
		h0.146v-4.637h9.417V28.335z M163.594,35.524c-1.725,0-3.198,0.462-4.421,1.384c-1.223,0.923-2.15,2.223-2.785,3.9
		c-0.636,1.678-0.952,3.619-0.952,5.822c0,2.351,0.335,4.439,1.006,6.272c0.671,1.834,1.636,3.267,2.895,4.296
		c1.258,1.031,2.737,1.547,4.439,1.547c1.749,0,3.289-0.504,4.619-1.511c1.329-1.007,2.358-2.407,3.091-4.206
		c0.729-1.797,1.097-3.869,1.097-6.219c0-2.156-0.366-4.092-1.097-5.805c-0.731-1.713-1.773-3.056-3.127-4.026
		C167.004,36.009,165.416,35.524,163.594,35.524z"/>
	<path stroke="#FFFFFF" stroke-miterlimit="10" d="M190.124,47.169c0-3.737,0.768-7.104,2.3-10.101
		c1.534-2.996,3.751-5.344,6.65-7.045c2.899-1.701,6.314-2.552,10.245-2.552c4.002,0,7.465,0.857,10.389,2.57
		c2.923,1.714,5.146,4.062,6.668,7.046c1.521,2.984,2.282,6.369,2.282,10.156c0,3.93-0.767,7.41-2.301,10.441
		c-1.533,3.031-3.75,5.404-6.649,7.117c-2.899,1.714-6.339,2.57-10.316,2.57c-3.979,0-7.417-0.856-10.316-2.57
		c-2.899-1.713-5.116-4.092-6.65-7.135S190.124,51.125,190.124,47.169z M209.283,35.704c-1.678,0-3.182,0.467-4.512,1.402
		c-1.329,0.935-2.378,2.289-3.146,4.062c-0.768,1.774-1.149,3.858-1.149,6.255c0,2.371,0.358,4.438,1.078,6.201
		c0.719,1.76,1.742,3.115,3.072,4.062s2.895,1.42,4.691,1.42s3.373-0.467,4.727-1.401c1.354-0.936,2.402-2.289,3.146-4.063
		c0.742-1.773,1.114-3.87,1.114-6.291c0-2.324-0.359-4.361-1.078-6.11c-0.72-1.749-1.756-3.109-3.109-4.08
		C212.763,36.189,211.152,35.704,209.283,35.704z"/>
</g>
<rect x="3" y="13.457" enable-background="new    " width="51.054" height="51.964"/>
<polygon fill="#FFFFFF" points="47.719,19.272 47.719,57.939 11.052,57.939 "/>
</svg>
